{
  "accessors": [
    {
      "bufferView": 2,
      "componentType": 5126,
      "count": 65533,
      "max": [
        22.278987884521484,
        7.219881057739258,
        15.981762886047363
      ],
      "min": [
        -40.691795349121094,
        -30.301639556884766,
        -12.891707420349121
      ],
      "type": "VEC3"
    },
    {
      "bufferView": 2,
      "byteOffset": 786396,
      "componentType": 5126,
      "count": 65533,
      "max": [
        1.0,
        1.0,
        1.0
      ],
      "min": [
        -1.0,
        -1.0,
        -1.0
      ],
      "type": "VEC3"
    },
    {
      "bufferView": 1,
      "componentType": 5126,
      "count": 65533,
      "max": [
        0.9974225163459778,
        0.9996336102485657
      ],
      "min": [
        0.0008384324610233307,
        0.007311733439564705
      ],
      "type": "VEC2"
    },
    {
      "bufferView": 1,
      "byteOffset": 524264,
      "componentType": 5126,
      "count": 65533,
      "max": [
        0.9997743964195251,
        0.9997743964195251
      ],
      "min": [
        0.00022563734091818333,
        0.00022562795493286103
      ],
      "type": "VEC2"
    },
    {
      "bufferView": 1,
      "byteOffset": 1048528,
      "componentType": 5126,
      "count": 65533,
      "max": [
        0.0,
        0.0
      ],
      "min": [
        0.0,
        0.0
      ],
      "type": "VEC2"
    },
    {
      "bufferView": 0,
      "componentType": 5125,
      "count": 170553,
      "type": "SCALAR"
    },
    {
      "bufferView": 2,
      "byteOffset": 1572792,
      "componentType": 5126,
      "count": 35914,
      "max": [
        21.732769012451172,
        5.395544052124023,
        15.411648750305176
      ],
      "min": [
        -39.298545837402344,
        -29.397708892822266,
        -12.101550102233887
      ],
      "type": "VEC3"
    },
    {
      "bufferView": 2,
      "byteOffset": 2003760,
      "componentType": 5126,
      "count": 35914,
      "max": [
        1.0,
        1.0,
        1.0
      ],
      "min": [
        -1.0,
        -1.0,
        -1.0
      ],
      "type": "VEC3"
    },
    {
      "bufferView": 1,
      "byteOffset": 1572792,
      "componentType": 5126,
      "count": 35914,
      "max": [
        0.9928512573242188,
        0.9833716154098511
      ],
      "min": [
        0.0008542127907276154,
        0.0017835870385169983
      ],
      "type": "VEC2"
    },
    {
      "bufferView": 1,
      "byteOffset": 1860104,
      "componentType": 5126,
      "count": 35914,
      "max": [
        0.9997538328170776,
        0.999751627445221
      ],
      "min": [
        0.00022563734091818333,
        0.00022562795493286103
      ],
      "type": "VEC2"
    },
    {
      "bufferView": 1,
      "byteOffset": 2147416,
      "componentType": 5126,
      "count": 35914,
      "max": [
        0.0,
        0.0
      ],
      "min": [
        0.0,
        0.0
      ],
      "type": "VEC2"
    },
    {
      "bufferView": 0,
      "byteOffset": 682212,
      "componentType": 5125,
      "count": 87888,
      "type": "SCALAR"
    },
    {
      "bufferView": 2,
      "byteOffset": 2434728,
      "componentType": 5126,
      "count": 44,
      "max": [
        21.129453659057617,
        5.955322265625,
        -6.052515983581543
      ],
      "min": [
        -32.86248016357422,
        -29.37276840209961,
        -12.017651557922363
      ],
      "type": "VEC3"
    },
    {
      "bufferView": 2,
      "byteOffset": 2435256,
      "componentType": 5126,
      "count": 44,
      "max": [
        7.883426178523223e-07,
        1.0,
        1.0
      ],
      "min": [
        -3.290074914730212e-07,
        -1.5804732811375288e-07,
        0.0
      ],
      "type": "VEC3"
    },
    {
      "bufferView": 1,
      "byteOffset": 2434728,
      "componentType": 5126,
      "count": 44,
      "max": [
        0.8309046626091003,
        0.9749312400817871
      ],
      "min": [
        0.005846163257956505,
        0.005846163257956505
      ],
      "type": "VEC2"
    },
    {
      "bufferView": 1,
      "byteOffset": 2435080,
      "componentType": 5126,
      "count": 44,
      "max": [
        0.9483065009117126,
        0.9056613445281982
      ],
      "min": [
        0.23908056318759918,
        0.10716499388217926
      ],
      "type": "VEC2"
    },
    {
      "bufferView": 1,
      "byteOffset": 2435432,
      "componentType": 5126,
      "count": 44,
      "max": [
        0.0,
        0.0
      ],
      "min": [
        0.0,
        0.0
      ],
      "type": "VEC2"
    },
    {
      "bufferView": 0,
      "byteOffset": 1033764,
      "componentType": 5125,
      "count": 66,
      "type": "SCALAR"
    },
    {
      "bufferView": 2,
      "byteOffset": 2435784,
      "componentType": 5126,
      "count": 92,
      "max": [
        2.9655532836914063,
        -3.568418502807617,
        -3.4890828132629395
      ],
      "min": [
        -3.082733631134033,
        -27.8067569732666,
        -11.488576889038086
      ],
      "type": "VEC3"
    },
    {
      "bufferView": 2,
      "byteOffset": 2436888,
      "componentType": 5126,
      "count": 92,
      "max": [
        1.0,
        1.0,
        0.9963176250457764
      ],
      "min": [
        -1.0,
        -1.0,
        -0.9963176250457764
      ],
      "type": "VEC3"
    },
    {
      "bufferView": 1,
      "byteOffset": 2435784,
      "componentType": 5126,
      "count": 92,
      "max": [
        0.0,
        0.0
      ],
      "min": [
        0.0,
        0.0
      ],
      "type": "VEC2"
    },
    {
      "bufferView": 1,
      "byteOffset": 2436520,
      "componentType": 5126,
      "count": 92,
      "max": [
        0.9827819466590881,
        0.9955829977989197
      ],
      "min": [
        0.18671664595603943,
        0.10444663465023041
      ],
      "type": "VEC2"
    },
    {
      "bufferView": 1,
      "byteOffset": 2437256,
      "componentType": 5126,
      "count": 92,
      "max": [
        0.0,
        0.0
      ],
      "min": [
        0.0,
        0.0
      ],
      "type": "VEC2"
    },
    {
      "bufferView": 0,
      "byteOffset": 1034028,
      "componentType": 5125,
      "count": 138,
      "type": "SCALAR"
    },
    {
      "bufferView": 2,
      "byteOffset": 2437992,
      "componentType": 5126,
      "count": 120,
      "max": [
        0.40569305419921875,
        -3.4209985733032227,
        -1.501424789428711
      ],
      "min": [
        -30.095829010009766,
        -9.765438079833984,
        -4.014893531799316
      ],
      "type": "VEC3"
    },
    {
      "bufferView": 2,
      "byteOffset": 2439432,
      "componentType": 5126,
      "count": 120,
      "max": [
        1.0,
        1.0,
        1.0
      ],
      "min": [
        -1.0,
        -1.0,
        -1.0
      ],
      "type": "VEC3"
    },
    {
      "bufferView": 1,
      "byteOffset": 2437992,
      "componentType": 5126,
      "count": 120,
      "max": [
        3.18333101272583,
        -0.8809603452682495
      ],
      "min": [
        3.18333101272583,
        -0.8809603452682495
      ],
      "type": "VEC2"
    },
    {
      "bufferView": 1,
      "byteOffset": 2438952,
      "componentType": 5126,
      "count": 120,
      "max": [
        0.9766286611557007,
        0.9761204719543457
      ],
      "min": [
        0.035462599247694016,
        0.014268288388848305
      ],
      "type": "VEC2"
    },
    {
      "bufferView": 1,
      "byteOffset": 2439912,
      "componentType": 5126,
      "count": 120,
      "max": [
        0.0,
        0.0
      ],
      "min": [
        0.0,
        0.0
      ],
      "type": "VEC2"
    },
    {
      "bufferView": 0,
      "byteOffset": 1034580,
      "componentType": 5125,
      "count": 240,
      "type": "SCALAR"
    },
    {
      "bufferView": 2,
      "byteOffset": 2440872,
      "componentType": 5126,
      "count": 26164,
      "max": [
        7.27933406829834,
        1.8714404106140137,
        1.0683479309082031
      ],
      "min": [
        -39.455631256103516,
        -32.300960540771484,
        -13.80875301361084
      ],
      "type": "VEC3"
    },
    {
      "bufferView": 2,
      "byteOffset": 2754840,
      "componentType": 5126,
      "count": 26164,
      "max": [
        1.0,
        1.0,
        1.0
      ],
      "min": [
        -1.0,
        -1.0,
        -1.0
      ],
      "type": "VEC3"
    },
    {
      "bufferView": 1,
      "byteOffset": 2440872,
      "componentType": 5126,
      "count": 26164,
      "max": [
        0.9941538572311401,
        0.9167193174362183
      ],
      "min": [
        0.005846163257956505,
        0.005727008450776339
      ],
      "type": "VEC2"
    },
    {
      "bufferView": 1,
      "byteOffset": 2650184,
      "componentType": 5126,
      "count": 26164,
      "max": [
        0.9993178844451904,
        0.9992970824241638
      ],
      "min": [
        0.00022563734091818333,
        0.00022562795493286103
      ],
      "type": "VEC2"
    },
    {
      "bufferView": 1,
      "byteOffset": 2859496,
      "componentType": 5126,
      "count": 26164,
      "max": [
        0.0,
        0.0
      ],
      "min": [
        0.0,
        0.0
      ],
      "type": "VEC2"
    },
    {
      "bufferView": 0,
      "byteOffset": 1035540,
      "componentType": 5125,
      "count": 43827,
      "type": "SCALAR"
    }
  ],
  "asset": {
    "extras": {
      "author": "Jellepostma (https://sketchfab.com/Jellepostma)",
      "license": "CC-BY-4.0 (http://creativecommons.org/licenses/by/4.0/)",
      "source": "https://sketchfab.com/3d-models/japanese-restaurant-inakaya-97594e92c418491ab7f032ed2abbf596",
      "title": "Japanese Restaurant \"Inakaya\""
    },
    "generator": "Sketchfab-15.19.0",
    "version": "2.0"
  },
  "bufferViews": [
    {
      "buffer": 0,
      "byteLength": 1210848,
      "name": "floatBufferViews",
      "target": 34963
    },
    {
      "buffer": 0,
      "byteLength": 3068808,
      "byteOffset": 1210848,
      "byteStride": 8,
      "name": "floatBufferViews",
      "target": 34962
    },
    {
      "buffer": 0,
      "byteLength": 3068808,
      "byteOffset": 4279656,
      "byteStride": 12,
      "name": "floatBufferViews",
      "target": 34962
    }
  ],
  "buffers": [
    {
      "byteLength": 7348464,
      "uri": "scene.bin"
    }
  ],
  "extensionsUsed": [
    "KHR_materials_specular",
    "KHR_materials_emissive_strength"
  ],
  "images": [
    {
      "uri": "textures/Inakaya_final_baseColor.png"
    },
    {
      "uri": "textures/Inakaya_final_metallicRoughness.png"
    },
    {
      "uri": "textures/Inakaya_final_emissive.png"
    },
    {
      "uri": "textures/Decals_baseColor.png"
    }
  ],
  "materials": [
    {
      "doubleSided": true,
      "emissiveFactor": [
        0.5,
        0.5,
        0.5
      ],
      "emissiveTexture": {
        "index": 2,
        "texCoord": 1
      },
      "extensions": {
        "KHR_materials_specular": {
          "specularColorFactor": [
            1.0,
            1.0,
            1.0
          ],
          "specularFactor": 0.0
        }
      },
      "name": "Inakaya_final",
      "occlusionTexture": {
        "index": 1,
        "texCoord": 1
      },
      "pbrMetallicRoughness": {
        "baseColorTexture": {
          "index": 0
        },
        "metallicFactor": 0.0,
        "metallicRoughnessTexture": {
          "index": 1,
          "texCoord": 1
        }
      }
    },
    {
      "alphaCutoff": 0.4831818089,
      "alphaMode": "MASK",
      "extensions": {
        "KHR_materials_specular": {
          "specularColorFactor": [
            1.0,
            1.0,
            1.0
          ],
          "specularFactor": 0.0
        }
      },
      "name": "Decals",
      "occlusionTexture": {
        "index": 1,
        "texCoord": 1
      },
      "pbrMetallicRoughness": {
        "baseColorTexture": {
          "index": 3
        },
        "metallicFactor": 0.0,
        "metallicRoughnessTexture": {
          "index": 1,
          "texCoord": 1
        }
      }
    },
    {
      "alphaMode": "BLEND",
      "doubleSided": true,
      "extensions": {
        "KHR_materials_specular": {
          "specularColorFactor": [
            1.0,
            1.0,
            1.0
          ],
          "specularFactor": 1.0
        }
      },
      "name": "Glass",
      "pbrMetallicRoughness": {
        "baseColorFactor": [
          0.02031330953012958,
          0.02031330953012958,
          0.02031330953012958,
          0.5046969789
        ],
        "metallicFactor": 0.0,
        "roughnessFactor": 0.0
      }
    },
    {
      "doubleSided": true,
      "emissiveFactor": [
        0.9752393113,
        1.0,
        0.766561419
      ],
      "extensions": {
        "KHR_materials_emissive_strength": {
          "emissiveStrength": 10.0
        }
      },
      "name": "II_Lamp",
      "pbrMetallicRoughness": {
        "baseColorFactor": [
          0.8,
          0.8,
          0.8,
          1.0
        ],
        "metallicFactor": 0.0,
        "roughnessFactor": 0.9577051495
      }
    },
    {
      "alphaMode": "BLEND",
      "extensions": {
        "KHR_materials_specular": {
          "specularColorFactor": [
            1.0,
            1.0,
            1.0
          ],
          "specularFactor": 0.0
        }
      },
      "name": "Alphas_D",
      "occlusionTexture": {
        "index": 1,
        "texCoord": 1
      },
      "pbrMetallicRoughness": {
        "baseColorTexture": {
          "index": 3
        },
        "metallicFactor": 0.0,
        "metallicRoughnessTexture": {
          "index": 1,
          "texCoord": 1
        }
      }
    }
  ],
  "meshes": [
    {
      "name": "Inakaya_Inakaya_final_0",
      "primitives": [
        {
          "attributes": {
            "NORMAL": 1,
            "POSITION": 0,
            "TEXCOORD_0": 2,
            "TEXCOORD_1": 3,
            "TEXCOORD_2": 4
          },
          "indices": 5,
          "material": 0,
          "mode": 4
        }
      ]
    },
    {
      "name": "Inakaya_Inakaya_final_0",
      "primitives": [
        {
          "attributes": {
            "NORMAL": 7,
            "POSITION": 6,
            "TEXCOORD_0": 8,
            "TEXCOORD_1": 9,
            "TEXCOORD_2": 10
          },
          "indices": 11,
          "material": 0,
          "mode": 4
        }
      ]
    },
    {
      "name": "Inakaya_Decals_0",
      "primitives": [
        {
          "attributes": {
            "NORMAL": 13,
            "POSITION": 12,
            "TEXCOORD_0": 14,
            "TEXCOORD_1": 15,
            "TEXCOORD_2": 16
          },
          "indices": 17,
          "material": 1,
          "mode": 4
        }
      ]
    },
    {
      "name": "Inakaya_Glass_0",
      "primitives": [
        {
          "attributes": {
            "NORMAL": 19,
            "POSITION": 18,
            "TEXCOORD_0": 20,
            "TEXCOORD_1": 21,
            "TEXCOORD_2": 22
          },
          "indices": 23,
          "material": 2,
          "mode": 4
        }
      ]
    },
    {
      "name": "Inakaya_II_Lamp_0",
      "primitives": [
        {
          "attributes": {
            "NORMAL": 25,
            "POSITION": 24,
            "TEXCOORD_0": 26,
            "TEXCOORD_1": 27,
            "TEXCOORD_2": 28
          },
          "indices": 29,
          "material": 3,
          "mode": 4
        }
      ]
    },
    {
      "name": "Inakaya_Alphas_D_0",
      "primitives": [
        {
          "attributes": {
            "NORMAL": 31,
            "POSITION": 30,
            "TEXCOORD_0": 32,
            "TEXCOORD_1": 33,
            "TEXCOORD_2": 34
          },
          "indices": 35,
          "material": 4,
          "mode": 4
        }
      ]
    }
  ],
  "nodes": [
    {
      "children": [
        1
      ],
      "matrix": [
        0.002120059449225664,
        0.0,
        0.0,
        0.0,
        0.0,
        4.707477628208921e-19,
        -0.002120059449225664,
        0.0,
        0.0,
        0.002120059449225664,
        4.707477628208921e-19,
        0.0,
        0.0,
        0.0,
        0.0,
        1.0
      ],
      "name": "Sketchfab_model"
    },
    {
      "children": [
        2
      ],
      "matrix": [
        1.0,
        0.0,
        0.0,
        0.0,
        0.0,
        0.0,
        1.0,
        0.0,
        0.0,
        -1.0,
        0.0,
        0.0,
        0.0,
        0.0,
        0.0,
        1.0
      ],
      "name": "0dc3d8e584254b13acc38d0a08a10306.fbx"
    },
    {
      "children": [
        3
      ],
      "name": "RootNode"
    },
    {
      "children": [
        4,
        5,
        6,
        7,
        8,
        9
      ],
      "matrix": [
        5.523350575797892e-05,
        5.551115123125783e-15,
        99.99999999998475,
        0.0,
        99.99999999998445,
        7.549789948768648e-06,
        -5.523350576353003e-05,
        0.0,
        -7.549789948768648e-06,
        99.99999999999972,
        4.163336342344337e-12,
        0.0,
        448.5164794921875,
        1148.8577880859375,
        1044.060302734375,
        1.0
      ],
      "name": "Inakaya"
    },
    {
      "mesh": 0,
      "name": "Inakaya_Inakaya_final_0"
    },
    {
      "mesh": 1,
      "name": "Inakaya_Inakaya_final_0"
    },
    {
      "mesh": 2,
      "name": "Inakaya_Decals_0"
    },
    {
      "mesh": 3,
      "name": "Inakaya_Glass_0"
    },
    {
      "mesh": 4,
      "name": "Inakaya_II_Lamp_0"
    },
    {
      "mesh": 5,
      "name": "Inakaya_Alphas_D_0"
    }
  ],
  "samplers": [
    {
      "magFilter": 9729,
      "minFilter": 9987,
      "wrapS": 10497,
      "wrapT": 10497
    }
  ],
  "scene": 0,
  "scenes": [
    {
      "name": "Sketchfab_Scene",
      "nodes": [
        0
      ]
    }
  ],
  "textures": [
    {
      "sampler": 0,
      "source": 0
    },
    {
      "sampler": 0,
      "source": 1
    },
    {
      "sampler": 0,
      "source": 2
    },
    {
      "sampler": 0,
      "source": 3
    }
  ]
}
